Twilight.2008.BRRip 720p Hindi.mkv

Format                                   : Matroska
Format version                           : Version 2
File size                                : 812 MiB
Duration                                 : 2h 1mn
Overall bit rate                         : 931 Kbps
Encoded date                             : UTC 2011-12-31 20:06:35
Writing application                      : mkvmerge v4.4.0 (\'Die Wiederkehr\') built on Oct 31 2010 21:52:48
Writing library                          : libebml v1.0.0 + libmatroska v1.0.0
Attachment                               : Yes / Yes / Yes / Yes / Yes / Yes

Video
ID                                       : 1
Format                                   : AVC
Format/Info                              : Advanced Video Codec
Format profile                           : High@L3.1
Format settings, CABAC                   : Yes
Format settings, ReFrames                : 3 frames
Codec ID                                 : V_MPEG4/ISO/AVC
Duration                                 : 2h 1mn
Nominal bit rate                         : 753 Kbps
Width                                    : 1 280 pixels
Height                                   : 528 pixels
Display aspect ratio                     : 2.40:1
Frame rate                               : 23.976 fps
Color space                              : YUV
Chroma subsampling                       : 4:2:0
Bit depth                                : 8 bits
Scan type                                : Progressive
Bits/(Pixel*Frame)                       : 0.046


Twilight.Eclipse.2010.BRRip 720p .Hindi..mkv

Format                                   : Matroska
Format version                           : Version 2
File size                                : 641 MiB
Duration                                 : 1h 58mn
Overall bit rate                         : 754 Kbps
Encoded date                             : UTC 2011-09-18 17:30:04
Writing library                          : libebml v1.0.0 + libmatroska v1.0.0

Video
ID                                       : 1
Format                                   : AVC
Format/Info                              : Advanced Video Codec
Format profile                           : High@L5.1
Format settings, CABAC                   : Yes
Format settings, ReFrames                : 8 frames
Muxing mode                              : Header stripping
Codec ID                                 : V_MPEG4/ISO/AVC
Duration                                 : 1h 58mn
Bit rate                                 : 608 Kbps
Width                                    : 1 280 pixels
Height                                   : 528 pixels
Display aspect ratio                     : 2.40:1
Frame rate                               : 25.000 fps
Original frame rate                      : 23.976 fps
Color space                              : YUV
Chroma subsampling                       : 4:2:0
Bit depth                                : 8 bits
Scan type                                : Progressive
Bits/(Pixel*Frame)                       : 0.036
Stream size                              : 520 MiB (81%)

Twilight.New.Moon.BRRip 720p .Hindi..mkv

Format                                   : Matroska
Format version                           : Version 2
File size                                : 560 MiB
Duration                                 : 2h 5mn
Overall bit rate                         : 625 Kbps
Encoded date                             : UTC 2010-04-18 04:30:45
Writing application                      : mkvmerge v3.1.0 (\'Happy up here\') built on Jan 19 2010 12:09:24
Video
ID                                       : 2
Format                                   : AVC
Format/Info                              : Advanced Video Codec
Format profile                           : High@L4.0
Format settings, CABAC                   : Yes
Format settings, ReFrames                : 8 frames
Codec ID                                 : V_MPEG4/ISO/AVC
Duration                                 : 2h 5mn
Bit rate                                 : 565 Kbps
Width                                    : 1 280 pixels
Height                                   : 536 pixels
Display aspect ratio                     : 2.40:1
Frame rate                               : 25.000 fps
Original frame rate                      : 23.976 fps
Color space                              : YUV
Chroma subsampling                       : 4:2:0
Bit depth                                : 8 bits
Scan type                                : Progressive
Bits/(Pixel*Frame)                       : 0.033
Stream size                              : 506 MiB (90%)
Language                                 : English
Default                                  : Yes
Forced                                   : No

Audio
ID                                       : 1
Format                                   : MPEG Audio
Format version                           : Version 2
Format profile                           : Layer 3
Mode                                     : Joint stereo
Mode extension                           : MS Stereo
Codec ID                                 : A_MPEG/L3
Codec ID/Hint                            : MP3
Duration                                 : 2h 5mn
Bit rate mode                            : Constant
Bit rate                                 : 48.0 Kbps
Channel(s)                               : 2 channels
Sampling rate                            : 16.0 KHz
Compression mode                         : Lossy
Delay relative to video                  : 2s 800ms
Stream size                              : 43.0 MiB (8%)
Title                                    : Hindi Audio
Writing library                          : LAME3.98 (beta)
Language                                 : Hindi
Default                                  : No
Forced                                   : No

